<svg
    xmlns="http://www.w3.org/2000/svg"
    viewBox="0 0 151 51"
    id="vector">
    <path
        id="path"
        d="M 119.37 24 L 119.37 24.08 C 119.37 26.58 119.01 28.89 118.29 31.01 C 117.56 33.12 116.55 34.97 115.24 36.55 C 113.93 38.12 112.4 39.34 110.66 40.21 C 108.92 41.07 107.02 41.5 104.98 41.5 C 103.48 41.5 102.09 41.23 100.82 40.68 C 99.55 40.13 98.47 39.39 97.58 38.44 C 96.77 37.58 96.17 36.61 95.79 35.54 L 95.69 35.21 L 95.55 35.21 L 92.26 50.69 L 87.5 50.69 L 93.18 24 L 98.16 24 L 98.14 24.06 L 98.14 24.06 C 97.67 25.65 97.44 27.33 97.44 29.09 C 97.44 31.46 98.12 33.41 99.47 34.93 C 100.83 36.45 102.63 37.21 104.87 37.21 C 106.26 37.21 107.55 36.9 108.73 36.27 C 109.9 35.64 110.93 34.75 111.82 33.61 C 112.7 32.47 113.38 31.11 113.87 29.55 C 114.37 27.98 114.61 26.27 114.61 24.41 C 114.61 24.27 114.61 24.14 114.61 24 L 119.37 24 Z"
        fill="#000000"
        stroke="#00000000"
        stroke-width="1"/>
    <path
        id="path_1"
        d="M 25.91 24 L 22.29 41 L 17.65 41 L 18.4 37.47 L 18.31 37.47 C 17.66 38.28 16.89 39 16 39.61 C 15.11 40.22 14.14 40.69 13.08 41.01 C 12.02 41.34 10.9 41.5 9.71 41.5 C 8.06 41.5 6.55 41.16 5.16 40.47 C 3.78 39.78 2.68 38.84 1.86 37.63 C 1.05 36.43 0.64 35.03 0.64 33.46 C 0.64 30.62 1.68 28.41 3.77 26.83 C 5.77 25.32 8.51 24.45 11.98 24.22 L 12.44 24.19 L 16.14 24 L 25.91 24 Z M 20.29 27.61 L 12.39 28.03 C 10.21 28.14 8.53 28.62 7.33 29.48 C 6.14 30.33 5.54 31.49 5.54 32.96 C 5.54 34.31 6.04 35.39 7.06 36.19 C 8.07 36.98 9.38 37.38 10.99 37.38 C 12.39 37.38 13.67 37.1 14.86 36.55 C 16.05 35.99 17.06 35.22 17.9 34.24 C 18.66 33.34 19.18 32.33 19.48 31.19 L 19.57 30.84 L 20.29 27.61 Z"
        fill="#000000"
        stroke="#00000000"
        stroke-width="1"/>
    <path
        id="path_2"
        d="M 57.94 24 L 54.33 41 L 49.46 41 L 50.43 36.38 L 50.32 36.38 C 49.45 37.83 48.18 39.04 46.51 40.03 C 44.84 41.01 43.06 41.5 41.16 41.5 C 38.96 41.5 37.04 40.98 35.43 39.94 C 33.82 38.9 32.57 37.45 31.7 35.59 C 30.83 33.72 30.39 31.54 30.39 29.03 C 30.39 27.26 30.58 25.58 30.94 24 L 35.85 24 L 35.84 24.01 C 35.44 25.47 35.24 27.07 35.24 28.81 C 35.24 31.43 35.86 33.49 37.1 34.99 C 38.34 36.49 40.07 37.24 42.28 37.24 C 43.74 37.24 45.09 36.91 46.33 36.24 C 47.56 35.57 48.63 34.64 49.54 33.44 C 50.45 32.25 51.16 30.84 51.66 29.23 C 52.15 27.62 52.4 25.88 52.41 24 L 57.94 24 Z"
        fill="#000000"
        stroke="#00000000"
        stroke-width="1"/>
    <path
        id="path_3"
        d="M 86.83 24 L 83.22 41 L 78.57 41 L 79.32 37.47 L 79.24 37.47 C 78.59 38.28 77.82 39 76.93 39.61 C 76.04 40.22 75.06 40.69 74.01 41.01 C 72.95 41.34 71.83 41.5 70.64 41.5 C 68.99 41.5 67.47 41.16 66.09 40.47 C 64.7 39.78 63.61 38.84 62.79 37.63 C 61.97 36.43 61.56 35.03 61.56 33.46 C 61.56 30.62 62.61 28.41 64.7 26.83 C 66.7 25.32 69.43 24.45 72.91 24.22 L 73.37 24.19 L 77.07 24 L 86.83 24 Z M 81.21 27.61 L 73.31 28.03 C 71.14 28.14 69.45 28.62 68.26 29.48 C 67.06 30.33 66.46 31.49 66.46 32.96 C 66.46 34.31 66.97 35.39 67.98 36.19 C 68.99 36.98 70.3 37.38 71.92 37.38 C 73.31 37.38 74.6 37.1 75.79 36.55 C 76.97 35.99 77.99 35.22 78.82 34.24 C 79.58 33.34 80.11 32.33 80.41 31.19 L 80.49 30.84 L 81.21 27.61 Z"
        fill="#000000"
        stroke="#00000000"
        stroke-width="1"/>
    <path
        id="path_4"
        d="M 129.54 24 L 127.98 31.31 C 127.86 31.83 127.78 32.31 127.73 32.73 C 127.67 33.16 127.64 33.56 127.64 33.93 C 127.64 35.03 127.98 35.81 128.67 36.3 C 129.36 36.78 130.27 37.02 131.4 37.02 L 131.81 37.02 L 131.81 37.02 L 132.16 37.01 L 132.16 37.01 C 132.38 37 132.59 36.98 132.79 36.96 L 133.4 36.91 L 132.54 40.94 C 132.06 41.02 131.57 41.08 131.08 41.14 C 130.59 41.19 130.1 41.22 129.62 41.22 C 127.6 41.22 125.91 40.73 124.55 39.75 C 123.2 38.76 122.52 37.28 122.52 35.29 C 122.52 34.92 122.54 34.53 122.59 34.11 C 122.62 33.83 122.66 33.55 122.71 33.26 L 122.8 32.82 L 124.69 24 L 129.54 24 Z"
        fill="#000000"
        stroke="#00000000"
        stroke-width="1"/>
    <path
        id="path_5"
        d="M 26.23 11.55 C 28.29 11.55 30.08 11.91 31.61 12.61 C 33.14 13.32 34.33 14.29 35.19 15.52 C 36.04 16.75 36.47 18.19 36.47 19.82 C 36.47 20.28 36.45 20.72 36.41 21.14 C 36.38 21.45 36.35 21.74 36.31 22.01 L 36.27 22.27 L 35.91 24 L 30.94 24 L 31.1 23.74 L 31.49 21.94 C 31.54 21.69 31.57 21.46 31.58 21.23 C 31.59 20.99 31.6 20.76 31.6 20.52 C 31.6 19.07 31.11 17.92 30.12 17.08 C 29.14 16.23 27.71 15.81 25.84 15.81 C 24.54 15.81 23.41 16.01 22.45 16.41 C 21.5 16.81 20.74 17.36 20.17 18.05 C 19.67 18.67 19.31 19.38 19.09 20.18 L 19.02 20.49 L 13.95 20.49 C 14.25 18.74 14.94 17.2 16.03 15.87 C 17.11 14.53 18.52 13.48 20.26 12.71 C 21.99 11.94 23.98 11.55 26.23 11.55 Z"
        fill="#000000"
        stroke="#00000000"
        stroke-width="1"/>
    <path
        id="path_6"
        d="M 73.87 0.84 L 68.94 24 L 63.41 24 L 63.41 23.97 C 63.41 21.59 62.74 19.64 61.39 18.12 C 60.04 16.6 58.23 15.84 55.95 15.84 C 54.58 15.84 53.3 16.16 52.12 16.79 C 50.94 17.42 49.91 18.31 49.03 19.47 C 48.15 20.63 47.46 22 46.97 23.58 L 46.85 24 L 41.94 24 C 42.09 23.35 42.28 22.71 42.49 22.09 C 43.22 19.96 44.25 18.11 45.57 16.54 C 46.88 14.96 48.42 13.73 50.19 12.86 C 51.95 11.99 53.85 11.55 55.89 11.55 C 57.43 11.55 58.85 11.85 60.15 12.43 C 61.45 13.01 62.54 13.79 63.42 14.77 C 64.22 15.65 64.78 16.63 65.1 17.69 L 65.19 18.01 L 65.33 18.01 L 69.03 0.84 L 73.87 0.84 Z"
        fill="#000000"
        stroke="#00000000"
        stroke-width="1"/>
    <path
        id="path_7"
        d="M 88.47 11.55 C 90.53 11.55 92.33 11.91 93.86 12.61 C 95.39 13.32 96.58 14.29 97.44 15.52 C 98.29 16.75 98.72 18.19 98.72 19.82 C 98.72 20.28 98.7 20.72 98.66 21.14 C 98.63 21.45 98.6 21.74 98.56 22.01 L 98.52 22.27 L 98.15 24 L 93.18 24 L 93.34 23.74 L 93.73 21.94 C 93.79 21.69 93.82 21.46 93.83 21.23 C 93.84 20.99 93.85 20.76 93.85 20.52 C 93.85 19.07 93.35 17.92 92.37 17.08 C 91.39 16.23 89.96 15.81 88.08 15.81 C 86.79 15.81 85.66 16.01 84.7 16.41 C 83.75 16.81 82.99 17.36 82.42 18.05 C 81.92 18.67 81.56 19.38 81.34 20.18 L 81.27 20.49 L 76.2 20.49 C 76.5 18.74 77.19 17.2 78.27 15.87 C 79.36 14.53 80.77 13.48 82.5 12.71 C 84.24 11.94 86.23 11.55 88.47 11.55 Z"
        fill="#000000"
        stroke="#00000000"
        stroke-width="1"/>
    <path
        id="path_8"
        d="M 118.68 11.55 C 120.89 11.55 122.79 12.07 124.39 13.1 C 125.99 14.13 127.21 15.58 128.08 17.45 C 128.93 19.31 129.36 21.49 129.37 24 L 124.61 24 C 124.55 21.49 123.93 19.51 122.75 18.08 C 121.5 16.57 119.78 15.81 117.57 15.81 C 115.99 15.81 114.58 16.17 113.34 16.88 C 112.1 17.6 111.03 18.58 110.15 19.82 C 109.28 21.05 108.62 22.44 108.15 24 L 103.18 24 L 105.71 12.05 L 110.47 12.05 L 109.47 16.73 L 109.56 16.73 C 110.43 15.23 111.7 13.99 113.37 13.01 C 115.04 12.04 116.81 11.55 118.68 11.55 Z"
        fill="#000000"
        stroke="#00000000"
        stroke-width="1"/>
    <path
        id="path_9"
        d="M 145.6 4.85 L 144.07 12.06 L 150.28 12.06 L 149.45 16.07 L 143.24 16.07 L 141.55 24.01 L 136.7 24.01 L 138.4 16.07 L 134.11 16.07 L 134.94 12.06 L 139.25 12.06 L 140.73 4.85 Z"
        fill="#000000"
        stroke="#00000000"
        stroke-width="1"/>
</svg>
